<svg width="667" height="667" viewBox="0 0 667 667" fill="none" xmlns="http://www.w3.org/2000/svg">
  <circle id="background" cx="333.5" cy="333.5" r="333.5" />
  <path id="path1" fill-rule="evenodd" clip-rule="evenodd"
    d="M350 0C419.681 2.057 482.014 24.223 537 66.5C600.499 117.602 641.666 183.102 660.5 263C663.734 280.541 665.901 298.207 667 316C654 316 641 316 628 316C619.011 216.805 573.677 139.305 492 83.5C448.563 56.522 401.229 41.689 350 39C350 26 350 13 350 0Z"
    fill="#050505" />
  <path id="path2" fill-rule="evenodd" clip-rule="evenodd"
    d="M300 0C305.333 0 310.667 0 316 0C316 13.333 316 26.667 316 40C213.497 47.137 134.997 93.803 80.5 180C55.694 221.589 41.86 266.589 39 315C26 315 13 315 0 315C1.112 269.219 11.945 225.886 32.5 185C80.487 91.558 155.653 32.391 258 7.5C272.082 4.655 286.082 2.155 300 0Z"
    fill="#050505" />
  <path id="path3" fill-rule="evenodd" clip-rule="evenodd"
    d="M374.611 145.5C406.489 145.556 426.656 160.889 435.111 191.5C437.424 218.38 426.59 237.88 402.611 250C392.525 253.289 382.192 254.289 371.611 253C366.46 251.951 361.627 250.117 357.111 247.5C342.009 264.024 326.676 280.357 311.111 296.5C310.444 297.5 310.444 298.5 311.111 299.5C324.406 323.16 323.572 346.327 308.611 369C323.599 385.321 339.265 400.988 355.611 416C360.847 414.708 366.18 413.374 371.611 412C405.325 409.611 426.492 424.777 435.111 457.5C436.656 495.291 418.656 516.624 381.111 521.5C344.118 516.837 326.118 495.837 327.111 458.5C327.941 452.344 329.775 446.511 332.611 441C317.352 423.739 301.352 407.072 284.611 391C255.491 401.011 230.658 394.511 210.111 371.5C196.62 351.933 193.953 330.933 202.111 308.5C214.843 282.549 235.676 270.049 264.611 271C271.318 272.135 277.818 273.968 284.111 276.5C288.065 273.549 291.732 270.216 295.111 266.5C307.611 252.667 320.111 238.833 332.611 225C321.177 195.633 328.177 171.633 353.611 153C360.282 149.168 367.282 146.668 374.611 145.5Z"
    fill="#050505" />
  <path id="path4" fill-rule="evenodd" clip-rule="evenodd"
    d="M0 348C12.667 348 25.333 348 38 348C50.255 467.708 110.589 553.208 219 604.5C249.985 617.83 282.319 625.663 316 628C316 641 316 654 316 667C208.794 659.162 123.627 612.162 60.5 526C23.107 472.657 2.94 413.324 0 348Z"
    fill="#050505" />
  <path id="path5" fill-rule="evenodd" clip-rule="evenodd"
    d="M628 349C641 349 654 349 667 349C660.724 450.394 618.39 532.894 540 596.5C484.092 639.421 420.758 662.921 350 667C350 654 350 641 350 628C450.668 618.775 528.502 572.108 583.5 488C609.45 445.314 624.283 398.98 628 349Z"
    fill="#050505" />
  <style>
    /* Light mode: fondo negro, logo blanco */
    #background {
    fill: #000000;
    }
    #path1, #path2, #path3, #path4, #path5 {
    fill: #ffffff;
    }

    /* Dark mode: fondo blanco, logo negro */
    @media (prefers-color-scheme: dark) {
    #background {
    fill: #ffffff;
    }
    #path1, #path2, #path3, #path4, #path5 {
    fill: #000000;
    }
    }
  </style>
</svg>